<svg xmlns="http://www.w3.org/2000/svg" xmlns:xlink="http://www.w3.org/1999/xlink" viewBox="0 0 524 610">
<defs>
	<style>
		.cls-2{fill:none;stroke:#30bce2;stroke-miterlimit:10;stroke-width:8px;opacity:0.59;}
    .cls-3{fill:#fcfcfc;}
    .cls-4{fill:#30bce2;}
    .cls-5{fill:#444;}
    .cls-6{fill:#f4f4f4;}
	</style>
</defs>
<g id="Layer_2" data-name="Layer 2">
	<rect class="cls-2" x="41" y="40" width="479" height="566"/>
</g>
<g id="Layer_3" data-name="Layer 3">
	<path class="cls-3" d="M74.31,77.44h31.44c17.51,0,29.75,2.24,38.23,9.29a31.25,31.25,0,0,1,10.92,24c0,12.17-5.84,21.3-17.14,27.22-11.48,5.93-23.53,5.77-37.66,5.77v48.69H74.31Zm25.79,45h12.06c11.67,0,17.51-3.85,17.51-11.69S123.26,98.9,111,98.9H100.1Z" transform="translate(0 0)"/>
	<path class="cls-3" d="M179.75,77.44H211.2c17.51,0,29.75,2.24,38.22,9.29a31.25,31.25,0,0,1,10.92,24c0,12.17-5.83,21.3-17.13,27.22-11.49,5.93-23.54,5.77-37.66,5.77v48.69h-25.8Zm25.8,45h12c11.68,0,17.51-3.85,17.51-11.69s-6.4-11.86-18.64-11.86H205.55Z" transform="translate(0 0)"/>
	<path class="cls-4" d="M85.31,84.44h31.44c17.51,0,29.75,2.24,38.23,9.29a31.25,31.25,0,0,1,10.92,24c0,12.17-5.84,21.3-17.14,27.22-11.48,5.93-23.53,5.77-37.66,5.77v48.69H85.31Zm25.79,45h12.06c11.67,0,17.51-3.85,17.51-11.69S134.26,105.9,122,105.9H111.1Z" transform="translate(0 0)"/>
	<path class="cls-4" d="M190.75,84.44H222.2c17.51,0,29.75,2.24,38.22,9.29a31.25,31.25,0,0,1,10.92,24c0,12.17-5.83,21.3-17.13,27.22-11.49,5.93-23.54,5.77-37.66,5.77v48.69h-25.8Zm25.8,45h12c11.68,0,17.51-3.85,17.51-11.69s-6.4-11.86-18.64-11.86H216.55Z" transform="translate(0 0)"/>
</g>
<g id="Layer_4" data-name="Layer 4">
  <path class="cls-5" d="M99.41,242.38h4c2.18,0,3.72.27,4.87,1.4a5,5,0,0,1,1.39,3.6,4.54,4.54,0,0,1-3.31,4.58l4.08,7.66h-3.57l-3.87-7.3h-.31v7.3H99.41Zm3.29,6.75h1.51c1.49,0,2.26-.6,2.26-1.78s-.79-1.75-2.35-1.75H102.7Z" transform="translate(0 0)"/>
  <path class="cls-5" d="M124.11,257.14a7.19,7.19,0,1,1,.86-3.69c0,.29,0,.43,0,.72H114.68a3.41,3.41,0,0,0,3.57,3,4.11,4.11,0,0,0,3.17-1.25Zm-2.35-5.49a3.71,3.71,0,0,0-6.94,0Z" transform="translate(0 0)"/>
  <path class="cls-5" d="M137,258.27A5.28,5.28,0,0,1,133,260c-3.24,0-6.07-2.78-6.07-6.69s2.69-6.72,6-6.72a5.48,5.48,0,0,1,4,1.72v-1.39h3.19v12.75H137Zm-6.8-5a3.48,3.48,0,1,0,3.44-3.77A3.48,3.48,0,0,0,130.15,253.23Z" transform="translate(0 0)"/>
  <path class="cls-5" d="M152.79,258.27a5.28,5.28,0,0,1-3.94,1.68c-3.24,0-6.07-2.78-6.07-6.69s2.69-6.72,6-6.72a5.5,5.5,0,0,1,4,1.72V242H156v17.67h-3.19Zm-6.8-5a3.48,3.48,0,1,0,3.44-3.77A3.48,3.48,0,0,0,146,253.23Z" transform="translate(0 0)"/>
  <rect class="cls-6" x="166" y="244" width="298" height="6"/>
  <rect class="cls-6" x="166" y="257" width="298" height="6"/>
  <rect class="cls-6" x="106" y="271" width="298" height="6"/>
  <rect class="cls-6" x="106" y="286" width="337" height="6"/>
</g>
<g id="Layer_5" data-name="Layer 5">
	<path class="cls-5" d="M97.51,313h3.24l2.47,11,3.1-11h2.73l3.12,11,2.45-11h3.24L114,330.2h-3.14l-3.19-11.14-3.1,11.14h-3.12Z" transform="translate(0 0)"/>
	<path class="cls-5" d="M121.15,319.06a3,3,0,0,1,2.69-1.94,3.06,3.06,0,0,1,1.39.33l-1,2.74a2.29,2.29,0,0,0-.94-.26c-.91,0-1.63,1.05-1.71,2.92,0,.7,0,1.49,0,2.19v5.16h-3.19V317.45h2.76Z" transform="translate(0 0)"/>
	<path class="cls-5" d="M130.12,314.31a2,2,0,0,1-2,2,2.13,2.13,0,0,1-2-2.21,2,2,0,0,1,2-1.94A2.06,2.06,0,0,1,130.12,314.31Zm-3.62,3.14h3.19V330.2H126.5Z" transform="translate(0 0)"/>
	<path class="cls-5" d="M133,312.75h3.19v4.7H138v2.74h-1.89v10H133v-10h-1.64v-2.74H133Z" transform="translate(0 0)"/>
	<path class="cls-5" d="M151.72,327.73a6.83,6.83,0,1,1-5.9-10.61,6.54,6.54,0,0,1,6.77,6.91c0,.29,0,.43,0,.72H142.29a3.4,3.4,0,0,0,3.58,2.95,4.14,4.14,0,0,0,3.17-1.24Zm-2.35-5.5a3.7,3.7,0,0,0-6.93,0Z" transform="translate(0 0)"/>
	<rect class="cls-6" x="166" y="312" width="298" height="6"/>
	<rect class="cls-6" x="166" y="325" width="298" height="6"/>
	<rect class="cls-6" x="106" y="339" width="347" height="6"/>
	<rect class="cls-6" x="106" y="354" width="337" height="6"/>
</g>
<g id="Layer_6" data-name="Layer 6">
	<path class="cls-5" d="M100.11,395.15c.79,1.49,1.71,2.26,2.86,2.26a1.83,1.83,0,0,0,2-1.61,2.71,2.71,0,0,0-1.1-1.92c-3.58-3-5.69-4.63-5.69-7.08a4.53,4.53,0,0,1,4.73-4.35c2.18,0,3.62,1.18,5,2.76l-2.45,2.16a3.38,3.38,0,0,0-2.59-1.77c-.87,0-1.47.5-1.47,1.2s.51,1.1,1,1.53c3.22,2.84,5.79,4.18,5.79,7.32,0,2.89-2.16,4.9-5.28,4.9-2.52,0-4.28-1.22-5.55-3.74Z" transform="translate(0 0)"/>
	<path class="cls-5" d="M114.15,388.77a5.44,5.44,0,0,1,4-1.73c3.29,0,6,2.73,6,6.72s-2.85,6.7-6.09,6.7a5.35,5.35,0,0,1-3.94-1.68v6H111V387.37h3.19Zm-.14,4.94a3.49,3.49,0,1,0,7,0,3.49,3.49,0,1,0-7,0Z" transform="translate(0 0)"/>
	<path class="cls-5" d="M138.75,397.65a7.19,7.19,0,1,1,.87-3.7c0,.29,0,.43,0,.72H129.32a3.4,3.4,0,0,0,3.58,2.95,4.09,4.09,0,0,0,3.16-1.25Zm-2.35-5.5a3.45,3.45,0,0,0-3.5-2.4,3.49,3.49,0,0,0-3.44,2.4Z" transform="translate(0 0)"/>
	<path class="cls-5" d="M151.59,398.78a5.32,5.32,0,0,1-3.94,1.68c-3.24,0-6.07-2.79-6.07-6.7s2.69-6.72,6-6.72a5.44,5.44,0,0,1,4,1.73v-1.4h3.19v12.75h-3.19Zm-6.79-5a3.48,3.48,0,1,0,3.43-3.76A3.47,3.47,0,0,0,144.8,393.73Z" transform="translate(0 0)"/>
	<path class="cls-5" d="M158,382.45h3.19v10.18l4.73-5.26h4l-5.47,6.12,6.14,6.63h-4l-5.43-5.88v5.88H158Z" transform="translate(0 0)"/>
	<rect class="cls-6" x="173" y="384" width="272" height="6"/>
	<rect class="cls-6" x="173" y="397" width="285" height="6"/>
	<rect class="cls-6" x="108" y="411" width="329" height="6"/>
	<rect class="cls-6" x="108" y="426" width="337" height="6"/>
	<rect class="cls-6" x="108" y="441" width="316" height="6"/>
</g>
<g id="Layer_7" data-name="Layer 7">
	<path class="cls-5" d="M98.84,466.17h9.53v3.21H105.2v14h-3.28v-14H98.84Z" transform="translate(0 0)"/>
	<path class="cls-5" d="M121,480.93a7.19,7.19,0,1,1,.87-3.7c0,.29,0,.43,0,.72H111.59a3.4,3.4,0,0,0,3.58,2.95,4.12,4.12,0,0,0,3.16-1.24Zm-2.35-5.5a3.45,3.45,0,0,0-3.5-2.4,3.49,3.49,0,0,0-3.44,2.4Z" transform="translate(0 0)"/>
	<path class="cls-5" d="M133.86,482.06a5.32,5.32,0,0,1-3.94,1.68c-3.24,0-6.07-2.79-6.07-6.7s2.69-6.72,6-6.72a5.44,5.44,0,0,1,4,1.73v-1.4h3.19V483.4h-3.19ZM127.07,477a3.48,3.48,0,1,0,3.43-3.76A3.47,3.47,0,0,0,127.07,477Z" transform="translate(0 0)"/>
	<path class="cls-5" d="M152.61,481.07a6.87,6.87,0,0,1-5.79,2.67c-4.34,0-7.15-3-7.15-6.68s3-6.74,7.2-6.74a6.86,6.86,0,0,1,5.88,2.9l-2.67,1.47a4,4,0,0,0-3.19-1.44,3.75,3.75,0,0,0-4,3.86,3.6,3.6,0,0,0,3.87,3.7,4,4,0,0,0,3.33-1.47Z" transform="translate(0 0)"/>
	<path class="cls-5" d="M155.65,465.73h3.19V472a5.65,5.65,0,0,1,3.77-1.63c2.4,0,4.37,1.56,4.37,4.65v8.43h-3.19v-6c0-2.59-.31-4.12-2.19-4.12a2.53,2.53,0,0,0-2.16,1.25,6.17,6.17,0,0,0-.6,3.47v5.43h-3.19Z" transform="translate(0 0)"/>
	<rect class="cls-6" x="173" y="466" width="272" height="6"/>
	<rect class="cls-6" x="173" y="479" width="285" height="6"/>
	<rect class="cls-6" x="108" y="493" width="350" height="6"/>
	<rect class="cls-6" x="108" y="508" width="300" height="6"/>
	<rect class="cls-6" x="108" y="523" width="316" height="6"/>
</g>
</svg>

