<?xml version="1.0" encoding="utf-8"?>
<!-- Generator: Adobe Illustrator 23.0.1, SVG Export Plug-In . SVG Version: 6.00 Build 0)  -->
<svg version="1.1" xmlns="http://www.w3.org/2000/svg" xmlns:xlink="http://www.w3.org/1999/xlink" x="0px" y="0px"
	 viewBox="0 0 549 636" style="enable-background:new 0 0 549 636;" xml:space="preserve">
<style type="text/css">
	.st0{fill:url(#SVGID_1_);}
	.st1{opacity:0.59;fill:none;stroke:#30BCE2;stroke-width:8;stroke-miterlimit:10;}
	.st2{fill:#FCFCFC;}
	.st3{fill:#30BCE2;}
	.st4{fill:#444444;}
	.st5{fill:#F4F4F4;}
</style>
<g id="Layer_1">
	<linearGradient id="SVGID_1_" gradientUnits="userSpaceOnUse" x1="-48.6676" y1="123.5435" x2="555.6676" y2="472.4565">
		<stop  offset="0.2299" style="stop-color:#FCFC00"/>
		<stop  offset="0.3785" style="stop-color:#FAF50D"/>
		<stop  offset="0.6539" style="stop-color:#F5E42F"/>
		<stop  offset="1" style="stop-color:#EDC963"/>
	</linearGradient>
	<rect x="14" y="15" class="st0" width="479" height="566"/>
</g>
<g id="Layer_2">
	<rect x="55" y="55" class="st1" width="479" height="566"/>
</g>
<g id="Layer_3">
	<g>
		<path class="st2" d="M88.309,92.44h31.445c17.511,0,29.75,2.242,38.224,9.29c6.59,5.446,10.921,14.255,10.921,24.026
			c0,12.173-5.837,21.303-17.135,27.229c-11.486,5.927-23.537,5.766-37.659,5.766v48.692H88.309V92.44z M114.104,137.448h12.051
			c11.674,0,17.511-3.844,17.511-11.692c0-7.688-6.402-11.853-18.641-11.853h-10.921V137.448z"/>
		<path class="st2" d="M193.754,92.44h31.445c17.511,0,29.75,2.242,38.224,9.29c6.59,5.446,10.921,14.255,10.921,24.026
			c0,12.173-5.837,21.303-17.135,27.229c-11.486,5.927-23.537,5.766-37.659,5.766v48.692h-25.796V92.44z M219.55,137.448h12.051
			c11.674,0,17.511-3.844,17.511-11.692c0-7.688-6.402-11.853-18.641-11.853H219.55V137.448z"/>
	</g>
	<g>
		<path class="st3" d="M99.309,99.44h31.445c17.511,0,29.75,2.242,38.224,9.29c6.59,5.446,10.921,14.255,10.921,24.026
			c0,12.173-5.837,21.303-17.135,27.229c-11.486,5.927-23.537,5.766-37.659,5.766v48.692H99.309V99.44z M125.104,144.448h12.051
			c11.674,0,17.511-3.844,17.511-11.692c0-7.688-6.402-11.853-18.641-11.853h-10.921V144.448z"/>
		<path class="st3" d="M204.754,99.44h31.445c17.511,0,29.75,2.242,38.224,9.29c6.59,5.446,10.921,14.255,10.921,24.026
			c0,12.173-5.837,21.303-17.135,27.229c-11.486,5.927-23.537,5.766-37.659,5.766v48.692h-25.796V99.44z M230.55,144.448h12.051
			c11.674,0,17.511-3.844,17.511-11.692c0-7.688-6.402-11.853-18.641-11.853H230.55V144.448z"/>
	</g>
</g>
<g id="Layer_4">
	<g>
		<path class="st4" d="M113.411,257.384h4.008c2.185,0,3.721,0.264,4.873,1.392c0.864,0.84,1.392,2.136,1.392,3.6
			c0,2.256-1.128,3.792-3.312,4.584l4.08,7.657h-3.576l-3.864-7.297H116.7v7.297h-3.289V257.384z M116.7,264.128h1.512
			c1.488,0,2.256-0.6,2.256-1.776c0-1.128-0.792-1.752-2.352-1.752H116.7V264.128z"/>
		<path class="st4" d="M138.108,272.145c-1.368,1.944-3.168,2.809-5.856,2.809c-4.056,0-6.672-2.977-6.672-6.721
			c0-3.48,2.52-6.696,6.625-6.696c4.032,0,6.769,2.88,6.769,6.913c0,0.288-0.024,0.432-0.024,0.72h-10.273
			c0.312,1.896,1.752,2.952,3.576,2.952c1.368,0,2.28-0.384,3.168-1.248L138.108,272.145z M135.756,266.648
			c-0.432-1.488-1.8-2.4-3.504-2.4c-1.584,0-2.808,0.792-3.432,2.4H135.756z"/>
		<path class="st4" d="M150.947,273.273c-1.128,1.104-2.328,1.68-3.937,1.68c-3.24,0-6.072-2.784-6.072-6.696
			c0-3.984,2.688-6.721,6-6.721c1.536,0,2.856,0.576,4.008,1.728v-1.392h3.192v12.745h-3.192V273.273z M144.155,268.232
			c0,2.185,1.44,3.793,3.432,3.793c1.968,0,3.504-1.488,3.504-3.817c0-2.232-1.488-3.744-3.504-3.744
			C145.475,264.464,144.155,266.145,144.155,268.232z"/>
		<path class="st4" d="M166.787,273.273c-1.128,1.104-2.328,1.68-3.937,1.68c-3.24,0-6.072-2.784-6.072-6.696
			c0-3.984,2.688-6.721,6-6.721c1.536,0,2.856,0.576,4.008,1.728v-6.312h3.192v17.666h-3.192V273.273z M159.995,268.232
			c0,2.185,1.44,3.793,3.432,3.793c1.968,0,3.504-1.488,3.504-3.817c0-2.232-1.488-3.744-3.504-3.744
			C161.314,264.464,159.995,266.145,159.995,268.232z"/>
	</g>
	<rect x="180" y="259" class="st5" width="298" height="6"/>
	<rect x="180" y="272" class="st5" width="298" height="6"/>
	<rect x="120" y="286" class="st5" width="298" height="6"/>
	<rect x="120" y="301" class="st5" width="337" height="6"/>
</g>
<g id="Layer_5">
	<g>
		<path class="st4" d="M111.508,327.966h3.24l2.472,10.993l3.097-10.993h2.736l3.121,10.993l2.448-10.993h3.24l-3.889,17.233h-3.144
			l-3.192-11.137l-3.096,11.137h-3.12L111.508,327.966z"/>
		<path class="st4" d="M135.149,334.062c0.6-1.32,1.632-1.944,2.688-1.944c0.672,0,1.08,0.192,1.392,0.336l-0.984,2.736
			c-0.24-0.12-0.6-0.264-0.936-0.264c-0.912,0-1.632,1.056-1.704,2.928c-0.024,0.696-0.024,1.488-0.024,2.185v5.16h-3.192v-12.745
			h2.76V334.062z"/>
		<path class="st4" d="M144.125,329.31c0,1.128-0.912,2.04-2.04,2.04c-1.176,0-2.041-1.031-2.041-2.208
			c0-1.104,0.937-1.944,2.041-1.944C143.236,327.198,144.125,328.158,144.125,329.31z M140.5,332.454h3.192v12.745H140.5V332.454z"
			/>
		<path class="st4" d="M146.956,327.75h3.192v4.705h1.896v2.736h-1.896v10.009h-3.192V335.19h-1.632v-2.736h1.632V327.75z"/>
		<path class="st4" d="M165.725,342.727c-1.368,1.944-3.168,2.809-5.856,2.809c-4.056,0-6.672-2.977-6.672-6.721
			c0-3.48,2.52-6.696,6.625-6.696c4.032,0,6.769,2.88,6.769,6.912c0,0.288-0.024,0.433-0.024,0.721h-10.273
			c0.312,1.896,1.752,2.952,3.576,2.952c1.368,0,2.28-0.384,3.168-1.248L165.725,342.727z M163.373,337.23
			c-0.432-1.488-1.8-2.4-3.504-2.4c-1.584,0-2.808,0.792-3.432,2.4H163.373z"/>
	</g>
	<rect x="180" y="327" class="st5" width="298" height="6"/>
	<rect x="180" y="340" class="st5" width="298" height="6"/>
	<rect x="120" y="354" class="st5" width="347" height="6"/>
	<rect x="120" y="369" class="st5" width="337" height="6"/>
</g>
<g id="Layer_6">
	<g>
		<path class="st4" d="M114.111,410.15c0.792,1.488,1.704,2.257,2.856,2.257c1.104,0,1.992-0.721,1.992-1.608
			c0-0.624-0.408-1.344-1.104-1.92c-3.576-3.001-5.688-4.633-5.688-7.081s2.136-4.345,4.729-4.345c2.184,0,3.625,1.177,4.993,2.761
			l-2.448,2.16c-0.816-1.152-1.656-1.776-2.592-1.776c-0.864,0-1.464,0.504-1.464,1.2c0,0.672,0.504,1.104,1.008,1.536
			c3.216,2.832,5.785,4.177,5.785,7.32c0,2.881-2.16,4.896-5.281,4.896c-2.52,0-4.272-1.224-5.544-3.744L114.111,410.15z"/>
		<path class="st4" d="M128.151,403.767c1.152-1.152,2.472-1.729,4.008-1.729c3.289,0,6.025,2.736,6.025,6.721
			c0,3.912-2.856,6.696-6.097,6.696c-1.608,0-2.784-0.576-3.937-1.68v6h-3.192v-17.401h3.192V403.767z M128.007,408.711
			c0,2.304,1.536,3.816,3.504,3.816c1.992,0,3.457-1.608,3.457-3.793c0-2.088-1.344-3.769-3.457-3.769
			C129.471,404.966,128.007,406.479,128.007,408.711z"/>
		<path class="st4" d="M152.751,412.646c-1.368,1.944-3.168,2.809-5.856,2.809c-4.056,0-6.672-2.977-6.672-6.721
			c0-3.48,2.52-6.696,6.625-6.696c4.032,0,6.769,2.88,6.769,6.912c0,0.288-0.024,0.433-0.024,0.721h-10.273
			c0.312,1.896,1.752,2.952,3.576,2.952c1.368,0,2.28-0.384,3.168-1.248L152.751,412.646z M150.399,407.15
			c-0.432-1.488-1.8-2.4-3.504-2.4c-1.584,0-2.808,0.792-3.432,2.4H150.399z"/>
		<path class="st4" d="M165.591,413.775c-1.128,1.104-2.328,1.68-3.937,1.68c-3.24,0-6.072-2.784-6.072-6.696
			c0-3.984,2.688-6.721,6-6.721c1.536,0,2.856,0.576,4.008,1.729v-1.393h3.192v12.745h-3.192V413.775z M158.799,408.734
			c0,2.185,1.44,3.793,3.432,3.793c1.968,0,3.504-1.488,3.504-3.816c0-2.232-1.488-3.745-3.504-3.745
			C160.119,404.966,158.799,406.646,158.799,408.734z"/>
		<path class="st4" d="M172.022,397.453h3.192v10.178l4.729-5.257h3.984l-5.472,6.12l6.145,6.625h-3.96l-5.425-5.881v5.881h-3.192
			V397.453z"/>
	</g>
	<rect x="187" y="399" class="st5" width="272" height="6"/>
	<rect x="187" y="412" class="st5" width="285" height="6"/>
	<rect x="122" y="426" class="st5" width="329" height="6"/>
	<rect x="122" y="441" class="st5" width="337" height="6"/>
	<rect x="122" y="456" class="st5" width="316" height="6"/>
</g>
<g id="Layer_7">
	<g>
		<path class="st4" d="M112.844,481.166h9.529v3.216h-3.168v14.018h-3.288v-14.018h-3.072V481.166z"/>
		<path class="st4" d="M135.021,495.927c-1.368,1.944-3.168,2.809-5.856,2.809c-4.056,0-6.672-2.977-6.672-6.721
			c0-3.48,2.52-6.696,6.625-6.696c4.032,0,6.769,2.88,6.769,6.912c0,0.288-0.024,0.433-0.024,0.721h-10.273
			c0.312,1.896,1.752,2.952,3.576,2.952c1.368,0,2.28-0.384,3.168-1.248L135.021,495.927z M132.669,490.431
			c-0.432-1.488-1.8-2.4-3.504-2.4c-1.584,0-2.808,0.792-3.432,2.4H132.669z"/>
		<path class="st4" d="M147.861,497.056c-1.128,1.104-2.328,1.68-3.937,1.68c-3.24,0-6.072-2.784-6.072-6.696
			c0-3.984,2.688-6.721,6-6.721c1.536,0,2.856,0.576,4.008,1.729v-1.393h3.192v12.745h-3.192V497.056z M141.069,492.015
			c0,2.185,1.44,3.793,3.432,3.793c1.968,0,3.504-1.488,3.504-3.816c0-2.232-1.488-3.745-3.504-3.745
			C142.389,488.246,141.069,489.927,141.069,492.015z"/>
		<path class="st4" d="M166.605,496.071c-1.368,1.776-3.289,2.664-5.785,2.664c-4.344,0-7.152-2.952-7.152-6.673
			c0-3.816,2.976-6.744,7.2-6.744c2.497,0,4.608,1.032,5.881,2.904l-2.665,1.464c-0.912-0.96-1.8-1.44-3.192-1.44
			c-2.448,0-4.008,1.656-4.008,3.865c0,2.16,1.512,3.696,3.864,3.696c1.416,0,2.544-0.48,3.336-1.465L166.605,496.071z"/>
		<path class="st4" d="M169.652,480.734h3.192v6.216c1.224-1.056,2.4-1.632,3.769-1.632c2.4,0,4.368,1.561,4.368,4.656v8.425h-3.192
			v-6.024c0-2.593-0.312-4.129-2.185-4.129c-0.888,0-1.656,0.456-2.16,1.249c-0.648,1.008-0.6,2.16-0.6,3.479v5.425h-3.192V480.734z
			"/>
	</g>
	<rect x="187" y="481" class="st5" width="272" height="6"/>
	<rect x="187" y="494" class="st5" width="285" height="6"/>
	<rect x="122" y="508" class="st5" width="350" height="6"/>
	<rect x="122" y="523" class="st5" width="300" height="6"/>
	<rect x="122" y="538" class="st5" width="316" height="6"/>
</g>
</svg>
